<svg width="1080" height="1080" viewBox="0 0 1080 1080" fill="none" xmlns="http://www.w3.org/2000/svg">
<g clip-path="url(#clip0_41_66)">
<circle cx="95" cy="95" r="95" fill="#FFAE00"/>
<circle cx="435" cy="95" r="95" fill="#FFAE00"/>
<circle cx="435" cy="445" r="95" fill="#FFAE00"/>
<circle cx="95" cy="445" r="95" fill="#FFAE00"/>
<circle cx="265" cy="270" r="95" fill="#FFAE00"/>
<rect x="95" y="93" width="340" height="355" fill="#AE00FF"/>
<path d="M161.101 258V223.091H182.749V227.625H166.368V238.261H181.197V242.778H166.368V258H161.101ZM189.226 258V223.091H194.493V253.466H210.311V258H189.226ZM216.32 258V223.091H238.206V227.625H221.587V238.261H237.064V242.778H221.587V253.466H238.411V258H216.32ZM248.906 223.091L257.259 236.744H257.531L265.884 223.091H271.986L261.111 240.545L272.054 258H265.918L257.531 244.534H257.259L248.872 258H242.736L253.866 240.545L242.804 223.091H248.906ZM282.477 223.091V258H277.21V223.091H282.477ZM290.148 258V223.091H302.932C305.409 223.091 307.46 223.5 309.085 224.318C310.71 225.125 311.926 226.222 312.733 227.608C313.54 228.983 313.943 230.534 313.943 232.261C313.943 233.716 313.676 234.943 313.142 235.943C312.608 236.932 311.892 237.727 310.994 238.33C310.108 238.92 309.131 239.352 308.062 239.625V239.966C309.222 240.023 310.352 240.398 311.455 241.091C312.568 241.773 313.489 242.744 314.216 244.006C314.943 245.267 315.307 246.801 315.307 248.608C315.307 250.392 314.886 251.994 314.045 253.415C313.216 254.824 311.932 255.943 310.193 256.773C308.455 257.591 306.233 258 303.528 258H290.148ZM295.415 253.483H303.017C305.54 253.483 307.347 252.994 308.438 252.017C309.528 251.04 310.074 249.818 310.074 248.352C310.074 247.25 309.795 246.239 309.239 245.318C308.682 244.398 307.886 243.665 306.852 243.119C305.83 242.574 304.614 242.301 303.205 242.301H295.415V253.483ZM295.415 238.193H302.472C303.653 238.193 304.716 237.966 305.659 237.511C306.614 237.057 307.369 236.42 307.926 235.602C308.494 234.773 308.778 233.795 308.778 232.67C308.778 231.227 308.273 230.017 307.261 229.04C306.25 228.062 304.699 227.574 302.608 227.574H295.415V238.193ZM321.554 258V223.091H326.821V253.466H342.639V258H321.554ZM348.648 258V223.091H370.534V227.625H353.915V238.261H369.392V242.778H353.915V253.466H370.739V258H348.648ZM189.422 290.261C189.24 288.648 188.49 287.398 187.172 286.511C185.854 285.614 184.195 285.165 182.195 285.165C180.763 285.165 179.524 285.392 178.479 285.847C177.433 286.29 176.621 286.903 176.041 287.688C175.473 288.46 175.189 289.341 175.189 290.33C175.189 291.159 175.382 291.875 175.768 292.477C176.166 293.08 176.683 293.585 177.32 293.994C177.967 294.392 178.661 294.727 179.399 295C180.138 295.261 180.848 295.477 181.53 295.648L184.939 296.534C186.053 296.807 187.195 297.176 188.365 297.642C189.536 298.108 190.621 298.722 191.621 299.483C192.621 300.244 193.428 301.188 194.041 302.312C194.666 303.438 194.979 304.784 194.979 306.352C194.979 308.33 194.467 310.085 193.445 311.619C192.433 313.153 190.962 314.364 189.03 315.25C187.109 316.136 184.786 316.58 182.058 316.58C179.445 316.58 177.183 316.165 175.274 315.335C173.365 314.506 171.871 313.33 170.791 311.807C169.712 310.273 169.115 308.455 169.001 306.352H174.286C174.388 307.614 174.797 308.665 175.513 309.506C176.24 310.335 177.166 310.955 178.291 311.364C179.428 311.761 180.672 311.96 182.024 311.96C183.513 311.96 184.837 311.727 185.996 311.261C187.166 310.784 188.087 310.125 188.757 309.284C189.428 308.432 189.763 307.437 189.763 306.301C189.763 305.267 189.467 304.42 188.876 303.761C188.297 303.102 187.507 302.557 186.507 302.125C185.518 301.693 184.399 301.312 183.149 300.983L179.024 299.858C176.229 299.097 174.013 297.977 172.376 296.5C170.751 295.023 169.939 293.068 169.939 290.636C169.939 288.625 170.484 286.869 171.575 285.369C172.666 283.869 174.143 282.705 176.007 281.875C177.871 281.034 179.973 280.614 182.314 280.614C184.678 280.614 186.763 281.028 188.57 281.858C190.388 282.688 191.82 283.83 192.865 285.284C193.911 286.727 194.456 288.386 194.501 290.261H189.422ZM198.58 281.091H204.562L213.682 296.96H214.057L223.176 281.091H229.159L216.494 302.295V316H211.244V302.295L198.58 281.091ZM253.172 290.261C252.99 288.648 252.24 287.398 250.922 286.511C249.604 285.614 247.945 285.165 245.945 285.165C244.513 285.165 243.274 285.392 242.229 285.847C241.183 286.29 240.371 286.903 239.791 287.688C239.223 288.46 238.939 289.341 238.939 290.33C238.939 291.159 239.132 291.875 239.518 292.477C239.916 293.08 240.433 293.585 241.07 293.994C241.717 294.392 242.411 294.727 243.149 295C243.888 295.261 244.598 295.477 245.28 295.648L248.689 296.534C249.803 296.807 250.945 297.176 252.115 297.642C253.286 298.108 254.371 298.722 255.371 299.483C256.371 300.244 257.178 301.188 257.791 302.312C258.416 303.438 258.729 304.784 258.729 306.352C258.729 308.33 258.217 310.085 257.195 311.619C256.183 313.153 254.712 314.364 252.78 315.25C250.859 316.136 248.536 316.58 245.808 316.58C243.195 316.58 240.933 316.165 239.024 315.335C237.115 314.506 235.621 313.33 234.541 311.807C233.462 310.273 232.865 308.455 232.751 306.352H238.036C238.138 307.614 238.547 308.665 239.263 309.506C239.99 310.335 240.916 310.955 242.041 311.364C243.178 311.761 244.422 311.96 245.774 311.96C247.263 311.96 248.587 311.727 249.746 311.261C250.916 310.784 251.837 310.125 252.507 309.284C253.178 308.432 253.513 307.437 253.513 306.301C253.513 305.267 253.217 304.42 252.626 303.761C252.047 303.102 251.257 302.557 250.257 302.125C249.268 301.693 248.149 301.312 246.899 300.983L242.774 299.858C239.979 299.097 237.763 297.977 236.126 296.5C234.501 295.023 233.689 293.068 233.689 290.636C233.689 288.625 234.234 286.869 235.325 285.369C236.416 283.869 237.893 282.705 239.757 281.875C241.621 281.034 243.723 280.614 246.064 280.614C248.428 280.614 250.513 281.028 252.32 281.858C254.138 282.688 255.57 283.83 256.615 285.284C257.661 286.727 258.206 288.386 258.251 290.261H253.172ZM263.301 285.625V281.091H290.318V285.625H279.426V316H274.176V285.625H263.301ZM296.288 316V281.091H318.175V285.625H301.555V296.261H317.033V300.778H301.555V311.466H318.379V316H296.288ZM325.21 281.091H331.602L342.716 308.227H343.125L354.239 281.091H360.631V316H355.619V290.739H355.295L345 315.949H340.841L330.545 290.722H330.222V316H325.21V281.091Z" fill="white"/>
</g>
<g clip-path="url(#clip1_41_66)">
<circle cx="815" cy="95" r="95" fill="#FFAE00"/>
<circle cx="645" cy="270" r="95" fill="#FFAE00"/>
<circle cx="815" cy="445" r="95" fill="#FFAE00"/>
<circle cx="985" cy="270" r="95" fill="#FFAE00"/>
<rect x="649" y="270" width="235.393" height="235.393" transform="rotate(-45 649 270)" fill="#AE00FF"/>
<path d="M773.114 294V247.455H780.136V267.682H803.341V247.455H810.386V294H803.341V273.705H780.136V294H773.114ZM820.614 294V247.455H827.636V267.682H850.841V247.455H857.886V294H850.841V273.705H827.636V294H820.614Z" fill="white"/>
<rect x="574" y="445.418" width="101" height="101" transform="rotate(-45 574 445.418)" fill="#AE00FF"/>
<rect x="574" y="95.418" width="101" height="101" transform="rotate(-45 574 95.418)" fill="#AE00FF"/>
<rect x="914" y="95.418" width="101" height="101" transform="rotate(-45 914 95.418)" fill="#AE00FF"/>
<rect x="914" y="445.418" width="101" height="101" transform="rotate(-45 914 445.418)" fill="#AE00FF"/>
</g>
<g clip-path="url(#clip2_41_66)">
<circle cx="265" cy="655" r="95" fill="#FFAE00"/>
<circle cx="95" cy="830" r="95" fill="#FFAE00"/>
<circle cx="265" cy="1005" r="95" fill="#FFAE00"/>
<circle cx="435" cy="830" r="95" fill="#FFAE00"/>
<rect x="99" y="830" width="235.393" height="235.393" transform="rotate(-45 99 830)" fill="#AE00FF"/>
<path d="M201.239 853V806.455H218.284C221.587 806.455 224.322 807 226.489 808.091C228.655 809.167 230.277 810.629 231.352 812.477C232.428 814.311 232.966 816.379 232.966 818.682C232.966 820.621 232.61 822.258 231.898 823.591C231.186 824.909 230.231 825.97 229.034 826.773C227.852 827.561 226.549 828.136 225.125 828.5V828.955C226.67 829.03 228.178 829.53 229.648 830.455C231.133 831.364 232.36 832.659 233.33 834.341C234.299 836.023 234.784 838.068 234.784 840.477C234.784 842.856 234.223 844.992 233.102 846.886C231.996 848.765 230.284 850.258 227.966 851.364C225.648 852.455 222.686 853 219.08 853H201.239ZM208.261 846.977H218.398C221.761 846.977 224.17 846.326 225.625 845.023C227.08 843.72 227.807 842.091 227.807 840.136C227.807 838.667 227.436 837.318 226.693 836.091C225.951 834.864 224.89 833.886 223.511 833.159C222.148 832.432 220.527 832.068 218.648 832.068H208.261V846.977ZM208.261 826.591H217.67C219.246 826.591 220.663 826.288 221.92 825.682C223.193 825.076 224.201 824.227 224.943 823.136C225.701 822.03 226.08 820.727 226.08 819.227C226.08 817.303 225.405 815.689 224.057 814.386C222.708 813.083 220.64 812.432 217.852 812.432H208.261V826.591ZM281.773 821.591H274.682C274.409 820.076 273.902 818.742 273.159 817.591C272.417 816.439 271.508 815.462 270.432 814.659C269.356 813.856 268.152 813.25 266.818 812.841C265.5 812.432 264.098 812.227 262.614 812.227C259.932 812.227 257.53 812.902 255.409 814.25C253.303 815.598 251.636 817.576 250.409 820.182C249.197 822.788 248.591 825.97 248.591 829.727C248.591 833.515 249.197 836.712 250.409 839.318C251.636 841.924 253.311 843.894 255.432 845.227C257.553 846.561 259.939 847.227 262.591 847.227C264.061 847.227 265.455 847.03 266.773 846.636C268.106 846.227 269.311 845.629 270.386 844.841C271.462 844.053 272.371 843.091 273.114 841.955C273.871 840.803 274.394 839.485 274.682 838L281.773 838.023C281.394 840.311 280.659 842.417 279.568 844.341C278.492 846.25 277.106 847.902 275.409 849.295C273.727 850.674 271.803 851.742 269.636 852.5C267.47 853.258 265.106 853.636 262.545 853.636C258.515 853.636 254.924 852.682 251.773 850.773C248.621 848.848 246.136 846.098 244.318 842.523C242.515 838.947 241.614 834.682 241.614 829.727C241.614 824.758 242.523 820.492 244.341 816.932C246.159 813.356 248.644 810.614 251.795 808.705C254.947 806.78 258.53 805.818 262.545 805.818C265.015 805.818 267.318 806.174 269.455 806.886C271.606 807.583 273.538 808.614 275.25 809.977C276.962 811.326 278.379 812.977 279.5 814.932C280.621 816.871 281.379 819.091 281.773 821.591ZM327.744 806.455V853H321.29L297.631 818.864H297.199V853H290.176V806.455H296.676L320.358 840.636H320.79V806.455H327.744Z" fill="white"/>
<rect x="24" y="1005.42" width="101" height="101" transform="rotate(-45 24 1005.42)" fill="#AE00FF"/>
<rect x="24" y="655.418" width="101" height="101" transform="rotate(-45 24 655.418)" fill="#AE00FF"/>
<rect x="364" y="655.418" width="101" height="101" transform="rotate(-45 364 655.418)" fill="#AE00FF"/>
<rect x="364" y="1005.42" width="101" height="101" transform="rotate(-45 364 1005.42)" fill="#AE00FF"/>
</g>
<g clip-path="url(#clip3_41_66)">
<circle cx="645" cy="655" r="95" fill="#FFAE00"/>
<circle cx="985" cy="655" r="95" fill="#FFAE00"/>
<circle cx="985" cy="1005" r="95" fill="#FFAE00"/>
<circle cx="645" cy="1005" r="95" fill="#FFAE00"/>
<circle cx="815" cy="830" r="95" fill="#FFAE00"/>
<rect x="645" y="653" width="340" height="355" fill="#AE00FF"/>
<path d="M765.24 750L757.172 720.909H761.788L767.456 743.438H767.725L773.62 720.909H778.194L784.089 743.452H784.359L790.012 720.909H794.643L786.561 750H782.143L776.021 728.21H775.794L769.672 750H765.24ZM804.341 750L796.273 720.909H800.89L806.557 743.438H806.827L812.722 720.909H817.296L823.191 743.452H823.461L829.114 720.909H833.745L825.662 750H821.245L815.123 728.21H814.895L808.773 750H804.341ZM843.443 750L835.375 720.909H839.991L845.659 743.438H845.929L851.824 720.909H856.397L862.292 743.452H862.562L868.216 720.909H872.846L864.764 750H860.346L854.224 728.21H853.997L847.875 750H843.443ZM724.794 798.27C724.018 798.27 723.35 797.995 722.791 797.446C722.232 796.887 721.953 796.215 721.953 795.429C721.953 794.652 722.232 793.99 722.791 793.44C723.35 792.882 724.018 792.602 724.794 792.602C725.571 792.602 726.238 792.882 726.797 793.44C727.356 793.99 727.635 794.652 727.635 795.429C727.635 795.95 727.502 796.428 727.237 796.864C726.982 797.29 726.641 797.631 726.214 797.886C725.788 798.142 725.315 798.27 724.794 798.27ZM733.665 798V768.909H751.705V772.688H738.054V781.551H750.412V785.315H738.054V798H733.665ZM757.102 798V768.909H761.491V794.222H774.673V798H757.102ZM779.68 798V768.909H797.919V772.688H784.07V781.551H796.967V785.315H784.07V794.222H798.089V798H779.68ZM806.836 768.909L813.796 780.287H814.023L820.984 768.909H826.069L817.006 783.455L826.126 798H821.012L814.023 786.778H813.796L806.808 798H801.694L810.969 783.455L801.751 768.909H806.836ZM834.812 768.909V798H830.423V768.909H834.812ZM841.204 798V768.909H851.857C853.922 768.909 855.631 769.25 856.985 769.932C858.339 770.604 859.353 771.518 860.025 772.673C860.697 773.819 861.033 775.112 861.033 776.551C861.033 777.763 860.811 778.786 860.366 779.619C859.921 780.443 859.324 781.106 858.576 781.608C857.837 782.1 857.023 782.46 856.133 782.688V782.972C857.099 783.019 858.041 783.331 858.96 783.909C859.888 784.477 860.655 785.287 861.261 786.338C861.867 787.389 862.17 788.668 862.17 790.173C862.17 791.66 861.819 792.995 861.119 794.179C860.427 795.353 859.357 796.286 857.908 796.977C856.46 797.659 854.608 798 852.354 798H841.204ZM845.593 794.236H851.928C854.031 794.236 855.536 793.829 856.445 793.014C857.354 792.2 857.809 791.182 857.809 789.96C857.809 789.042 857.577 788.199 857.113 787.432C856.649 786.665 855.986 786.054 855.124 785.599C854.272 785.145 853.259 784.918 852.085 784.918H845.593V794.236ZM845.593 781.494H851.474C852.459 781.494 853.344 781.305 854.13 780.926C854.925 780.547 855.555 780.017 856.019 779.335C856.493 778.644 856.729 777.83 856.729 776.892C856.729 775.689 856.308 774.681 855.465 773.866C854.622 773.052 853.33 772.645 851.587 772.645H845.593V781.494ZM867.376 798V768.909H871.765V794.222H884.947V798H867.376ZM889.954 798V768.909H908.192V772.688H894.343V781.551H907.241V785.315H894.343V794.222H908.363V798H889.954ZM748.434 816.909L756.531 840.602H756.857L764.954 816.909H769.698L759.229 846H754.158L743.69 816.909H748.434ZM778.288 816.909V846H773.899V816.909H778.288ZM800.547 824.551C800.395 823.206 799.77 822.165 798.672 821.426C797.573 820.678 796.191 820.304 794.524 820.304C793.331 820.304 792.299 820.493 791.428 820.872C790.556 821.241 789.879 821.753 789.396 822.406C788.923 823.05 788.686 823.784 788.686 824.608C788.686 825.299 788.847 825.896 789.169 826.398C789.5 826.9 789.931 827.321 790.462 827.662C791.001 827.993 791.579 828.273 792.195 828.5C792.81 828.718 793.402 828.898 793.97 829.04L796.811 829.778C797.739 830.006 798.691 830.313 799.666 830.702C800.642 831.09 801.546 831.601 802.379 832.236C803.213 832.87 803.885 833.656 804.396 834.594C804.917 835.531 805.178 836.653 805.178 837.96C805.178 839.608 804.751 841.071 803.899 842.349C803.056 843.628 801.83 844.636 800.22 845.375C798.62 846.114 796.683 846.483 794.411 846.483C792.232 846.483 790.348 846.137 788.757 845.446C787.166 844.755 785.921 843.775 785.021 842.506C784.122 841.227 783.625 839.712 783.53 837.96H787.933C788.018 839.011 788.359 839.887 788.956 840.588C789.562 841.279 790.334 841.795 791.271 842.136C792.218 842.468 793.255 842.634 794.382 842.634C795.623 842.634 796.726 842.439 797.692 842.051C798.667 841.653 799.434 841.104 799.993 840.403C800.552 839.693 800.831 838.865 800.831 837.918C800.831 837.056 800.585 836.35 800.092 835.801C799.609 835.252 798.951 834.797 798.118 834.438C797.294 834.078 796.361 833.76 795.32 833.486L791.882 832.548C789.553 831.914 787.706 830.981 786.342 829.75C784.988 828.519 784.311 826.89 784.311 824.864C784.311 823.187 784.766 821.724 785.675 820.474C786.584 819.224 787.815 818.254 789.368 817.562C790.921 816.862 792.673 816.511 794.624 816.511C796.593 816.511 798.331 816.857 799.837 817.548C801.352 818.24 802.545 819.191 803.416 820.403C804.287 821.606 804.742 822.989 804.78 824.551H800.547ZM829.13 816.909H833.533V836.043C833.533 838.079 833.055 839.883 832.099 841.455C831.142 843.017 829.798 844.248 828.065 845.148C826.332 846.038 824.3 846.483 821.971 846.483C819.651 846.483 817.624 846.038 815.891 845.148C814.158 844.248 812.814 843.017 811.857 841.455C810.901 839.883 810.423 838.079 810.423 836.043V816.909H814.812V835.688C814.812 837.004 815.101 838.173 815.678 839.196C816.265 840.219 817.094 841.024 818.164 841.611C819.234 842.188 820.503 842.477 821.971 842.477C823.448 842.477 824.722 842.188 825.792 841.611C826.871 841.024 827.695 840.219 828.263 839.196C828.841 838.173 829.13 837.004 829.13 835.688V816.909ZM842.372 846H837.713L848.182 816.909H853.253L863.722 846H859.062L850.838 822.193H850.611L842.372 846ZM843.153 834.608H858.267V838.301H843.153V834.608ZM867.923 846V816.909H872.312V842.222H885.494V846H867.923ZM738.73 872.551C738.579 871.206 737.954 870.165 736.855 869.426C735.757 868.678 734.374 868.304 732.708 868.304C731.515 868.304 730.482 868.493 729.611 868.872C728.74 869.241 728.063 869.753 727.58 870.406C727.106 871.05 726.87 871.784 726.87 872.608C726.87 873.299 727.031 873.896 727.353 874.398C727.684 874.9 728.115 875.321 728.645 875.662C729.185 875.993 729.763 876.273 730.378 876.5C730.994 876.718 731.586 876.898 732.154 877.04L734.995 877.778C735.923 878.006 736.874 878.313 737.85 878.702C738.825 879.09 739.73 879.601 740.563 880.236C741.396 880.87 742.069 881.656 742.58 882.594C743.101 883.531 743.361 884.653 743.361 885.96C743.361 887.608 742.935 889.071 742.083 890.349C741.24 891.628 740.014 892.636 738.404 893.375C736.803 894.114 734.867 894.483 732.594 894.483C730.416 894.483 728.532 894.137 726.941 893.446C725.35 892.755 724.105 891.775 723.205 890.506C722.305 889.227 721.808 887.712 721.713 885.96H726.117C726.202 887.011 726.543 887.887 727.14 888.588C727.746 889.279 728.517 889.795 729.455 890.136C730.402 890.468 731.439 890.634 732.566 890.634C733.806 890.634 734.909 890.439 735.875 890.051C736.851 889.653 737.618 889.104 738.176 888.403C738.735 887.693 739.015 886.865 739.015 885.918C739.015 885.056 738.768 884.35 738.276 883.801C737.793 883.252 737.135 882.797 736.301 882.438C735.478 882.078 734.545 881.76 733.503 881.486L730.066 880.548C727.736 879.914 725.89 878.981 724.526 877.75C723.172 876.519 722.495 874.89 722.495 872.864C722.495 871.187 722.949 869.724 723.858 868.474C724.767 867.224 725.998 866.254 727.551 865.562C729.105 864.862 730.856 864.511 732.807 864.511C734.777 864.511 736.515 864.857 738.02 865.548C739.535 866.24 740.729 867.191 741.6 868.403C742.471 869.606 742.926 870.989 742.963 872.551H738.73ZM746.362 864.909H751.348L758.947 878.134H759.26L766.859 864.909H771.845L761.291 882.58V894H756.916V882.58L746.362 864.909ZM791.855 872.551C791.704 871.206 791.079 870.165 789.98 869.426C788.882 868.678 787.499 868.304 785.833 868.304C784.64 868.304 783.607 868.493 782.736 868.872C781.865 869.241 781.188 869.753 780.705 870.406C780.231 871.05 779.995 871.784 779.995 872.608C779.995 873.299 780.156 873.896 780.478 874.398C780.809 874.9 781.24 875.321 781.77 875.662C782.31 875.993 782.888 876.273 783.503 876.5C784.119 876.718 784.711 876.898 785.279 877.04L788.12 877.778C789.048 878.006 789.999 878.313 790.975 878.702C791.95 879.09 792.855 879.601 793.688 880.236C794.521 880.87 795.194 881.656 795.705 882.594C796.226 883.531 796.486 884.653 796.486 885.96C796.486 887.608 796.06 889.071 795.208 890.349C794.365 891.628 793.139 892.636 791.529 893.375C789.928 894.114 787.992 894.483 785.719 894.483C783.541 894.483 781.657 894.137 780.066 893.446C778.475 892.755 777.23 891.775 776.33 890.506C775.43 889.227 774.933 887.712 774.838 885.96H779.242C779.327 887.011 779.668 887.887 780.265 888.588C780.871 889.279 781.642 889.795 782.58 890.136C783.527 890.468 784.564 890.634 785.691 890.634C786.931 890.634 788.034 890.439 789 890.051C789.976 889.653 790.743 889.104 791.301 888.403C791.86 887.693 792.14 886.865 792.14 885.918C792.14 885.056 791.893 884.35 791.401 883.801C790.918 883.252 790.26 882.797 789.426 882.438C788.603 882.078 787.67 881.76 786.628 881.486L783.191 880.548C780.861 879.914 779.015 878.981 777.651 877.75C776.297 876.519 775.62 874.89 775.62 872.864C775.62 871.187 776.074 869.724 776.983 868.474C777.892 867.224 779.123 866.254 780.676 865.562C782.23 864.862 783.981 864.511 785.932 864.511C787.902 864.511 789.64 864.857 791.145 865.548C792.66 866.24 793.854 867.191 794.725 868.403C795.596 869.606 796.051 870.989 796.088 872.551H791.855ZM800.297 868.688V864.909H822.811V868.688H813.734V894H809.359V868.688H800.297ZM827.786 894V864.909H846.025V868.688H832.175V877.551H845.073V881.315H832.175V890.222H846.195V894H827.786ZM851.887 864.909H857.214L866.475 887.523H866.816L876.078 864.909H881.404V894H877.228V872.949H876.958L868.379 893.957H864.913L856.333 872.935H856.064V894H851.887V864.909ZM903.652 872.551C903.501 871.206 902.876 870.165 901.777 869.426C900.679 868.678 899.296 868.304 897.63 868.304C896.436 868.304 895.404 868.493 894.533 868.872C893.662 869.241 892.985 869.753 892.502 870.406C892.028 871.05 891.792 871.784 891.792 872.608C891.792 873.299 891.953 873.896 892.275 874.398C892.606 874.9 893.037 875.321 893.567 875.662C894.107 875.993 894.685 876.273 895.3 876.5C895.916 876.718 896.507 876.898 897.076 877.04L899.917 877.778C900.845 878.006 901.796 878.313 902.772 878.702C903.747 879.09 904.651 879.601 905.485 880.236C906.318 880.87 906.99 881.656 907.502 882.594C908.023 883.531 908.283 884.653 908.283 885.96C908.283 887.608 907.857 889.071 907.005 890.349C906.162 891.628 904.935 892.636 903.326 893.375C901.725 894.114 899.789 894.483 897.516 894.483C895.338 894.483 893.453 894.137 891.863 893.446C890.272 892.755 889.026 891.775 888.127 890.506C887.227 889.227 886.73 887.712 886.635 885.96H891.039C891.124 887.011 891.465 887.887 892.061 888.588C892.667 889.279 893.439 889.795 894.377 890.136C895.324 890.468 896.361 890.634 897.488 890.634C898.728 890.634 899.831 890.439 900.797 890.051C901.773 889.653 902.54 889.104 903.098 888.403C903.657 887.693 903.936 886.865 903.936 885.918C903.936 885.056 903.69 884.35 903.198 883.801C902.715 883.252 902.057 882.797 901.223 882.438C900.4 882.078 899.467 881.76 898.425 881.486L894.988 880.548C892.658 879.914 890.811 878.981 889.448 877.75C888.094 876.519 887.417 874.89 887.417 872.864C887.417 871.187 887.871 869.724 888.78 868.474C889.689 867.224 890.92 866.254 892.473 865.562C894.026 864.862 895.778 864.511 897.729 864.511C899.699 864.511 901.436 864.857 902.942 865.548C904.457 866.24 905.65 867.191 906.522 868.403C907.393 869.606 907.847 870.989 907.885 872.551H903.652ZM767.567 942.27C766.791 942.27 766.123 941.995 765.565 941.446C765.006 940.887 764.727 940.215 764.727 939.429C764.727 938.652 765.006 937.99 765.565 937.44C766.123 936.882 766.791 936.602 767.567 936.602C768.344 936.602 769.012 936.882 769.57 937.44C770.129 937.99 770.408 938.652 770.408 939.429C770.408 939.95 770.276 940.428 770.011 940.864C769.755 941.29 769.414 941.631 768.988 941.886C768.562 942.142 768.088 942.27 767.567 942.27ZM780.827 912.909V942H776.438V912.909H780.827ZM810.7 912.909V942H806.665L791.879 920.665H791.609V942H787.219V912.909H791.282L806.083 934.273H806.353V912.909H810.7ZM817.102 942V912.909H835.142V916.688H821.491V925.551H833.849V929.315H821.491V942H817.102ZM865.81 927.455C865.81 930.561 865.241 933.231 864.105 935.466C862.969 937.691 861.411 939.405 859.432 940.608C857.462 941.801 855.223 942.398 852.713 942.398C850.194 942.398 847.945 941.801 845.966 940.608C843.996 939.405 842.443 937.687 841.307 935.452C840.17 933.217 839.602 930.551 839.602 927.455C839.602 924.348 840.17 921.683 841.307 919.457C842.443 917.223 843.996 915.509 845.966 914.315C847.945 913.113 850.194 912.511 852.713 912.511C855.223 912.511 857.462 913.113 859.432 914.315C861.411 915.509 862.969 917.223 864.105 919.457C865.241 921.683 865.81 924.348 865.81 927.455ZM861.463 927.455C861.463 925.087 861.08 923.094 860.312 921.474C859.555 919.846 858.513 918.615 857.188 917.781C855.871 916.938 854.38 916.517 852.713 916.517C851.037 916.517 849.541 916.938 848.224 917.781C846.908 918.615 845.866 919.846 845.099 921.474C844.342 923.094 843.963 925.087 843.963 927.455C843.963 929.822 844.342 931.82 845.099 933.449C845.866 935.068 846.908 936.299 848.224 937.142C849.541 937.975 851.037 938.392 852.713 938.392C854.38 938.392 855.871 937.975 857.188 937.142C858.513 936.299 859.555 935.068 860.312 933.449C861.08 931.82 861.463 929.822 861.463 927.455Z" fill="white"/>
</g>
<defs>
<clipPath id="clip0_41_66">
<rect width="530" height="540" fill="white"/>
</clipPath>
<clipPath id="clip1_41_66">
<rect width="530" height="540" fill="white" transform="translate(550)"/>
</clipPath>
<clipPath id="clip2_41_66">
<rect width="530" height="540" fill="white" transform="translate(0 560)"/>
</clipPath>
<clipPath id="clip3_41_66">
<rect width="530" height="540" fill="white" transform="translate(550 560)"/>
</clipPath>
</defs>
</svg>
